<svg xmlns="http://www.w3.org/2000/svg" viewBox="0 0 307.05 257.82"><defs><style>.cls-1,.cls-2{fill:#662d90;}.cls-2{stroke:#000;stroke-miterlimit:10;stroke-width:0.56px;}</style></defs><title>Asset 1</title><g id="Layer_2" data-name="Layer 2"><g id="Layer_5" data-name="Layer 5"><path class="cls-1" d="M147,18.42s27.08-3.93,35.38,7.91S177,50.56,177,50.56c-22.56,15.78-48.3,20.12-90.09,30.31C4.38,101,16.16,132.51,16.16,132.51s-46-23.25,17.17-55.22C57.88,64.86,94.75,53.21,136.58,39.08,151.5,34,147,18.42,147,18.42Z"/><path class="cls-1" d="M156.54,65.37"/><path class="cls-1" d="M107.25,18.25s6.22,19.89-13.68,38.54-40.08,48-50.8,64.26c-8.4,12.72-45.85,52.61-20.65,88.21,15,21.21,39,21.58,54.06,17.45,45.49-12.51,57.4-38,57.24-37.91-11.54,10.23-38.29,23.74-60.81-3.57C44,150.54,107.92,78.39,118.44,61.77,124.45,52.28,132.12,30.06,107.25,18.25Z"/><path class="cls-1" d="M262,179.43c-17.83,14.83-58.24,22.89-78.64-10.89-11.45-19-15-38.85,4.32-66.06,9-12.67,19.54-28.53,18.77-50.3C205.32,20.27,180.17,0,180.17,0s23.65,6.62,37.54,36.41c12.49,26.8,3.33,52.86-4.88,67.19-12.57,22-2.17,42,16.33,48,11.07,3.61,18.13-1.88,20-4.22,9.29-11.68,3.81-23-2.67-27.45-8.68-6-17.88-1.31-17.88-1.31s7.32-26.28,27.59-16.84C285,115.16,292.11,154.39,262,179.43Z"/><path class="cls-1" d="M143.71,150.62s34.91,3.94,26,44.2c-4.77,21.65,16.89,36.88,29,36.6,11.72-.27,18.86-4.43,18.86-4.43s-5.18,30.25-37.58,30.83c-31.46.56-50.82-35.4-30.83-63.13C162.46,176.28,153.28,160.19,143.71,150.62Z"/><path class="cls-1" d="M98.27,185.52s28.22-3.19,21-35.73C115.46,132.3,133,120,142.76,120.21c9.47.22,14.79,3.41,14.79,3.41s-5.69-25-29.81-25c-27.32,0-41.19,28.9-25,51.31C113.43,164.78,106,177.79,98.27,185.52Z"/><path class="cls-2" d="M244.14,226.94"/><path class="cls-1" d="M307,61.37S300.48,100,262.19,93.09c-27.57-5-33.22-33.78-27.78-49,9.73-27.18,41.8-30.36,56.12-18.77,25.69,20.81-3.38,38.43-3.38,38.43s8.16-14.22-6-20.18c-11.94-5-23,11-12.76,21.21S296.05,72.37,307,61.37Z"/><circle class="cls-1" cx="195.37" cy="207.76" r="10.13"/></g></g></svg>